<svg xmlns="http://www.w3.org/2000/svg" viewBox="0 0 283.34 134.55"><defs><style>.cls-1{isolation:isolate;}.cls-2{fill:#00adee;}.cls-3,.cls-4{fill:#36a7dd;}.cls-4{mix-blend-mode:multiply;}.cls-5{fill:#0d9ed9;}.cls-6{fill:#7b7b7b;}</style></defs><title>Logo-Standard</title><g class="cls-1"><g id="Logo_Content" data-name="Logo Content"><path class="cls-2" d="M105,59.64H81.39V38.21a8.6,8.6,0,0,1,8.78-8.37h23.56V51.27A8.59,8.59,0,0,1,105,59.64Zm-17.59-6H105a2.67,2.67,0,0,0,2.82-2.41V35.81H90.17a2.67,2.67,0,0,0-2.81,2.4Z"/><path class="cls-3" d="M113.73,104.84H90.17a8.59,8.59,0,0,1-8.78-8.37V75H105a8.6,8.6,0,0,1,8.78,8.37ZM87.36,81V96.47a2.68,2.68,0,0,0,2.81,2.41h17.6V83.41A2.67,2.67,0,0,0,105,81Z"/><path class="cls-3" d="M55.9,104.84H32.34V83.41A8.6,8.6,0,0,1,41.12,75H64.68V96.47A8.59,8.59,0,0,1,55.9,104.84Zm-17.59-6H55.9a2.68,2.68,0,0,0,2.82-2.41V81H41.12a2.67,2.67,0,0,0-2.81,2.4Z"/><path class="cls-3" d="M105,59.64H81.39V38.21a8.6,8.6,0,0,1,8.78-8.37h23.56V51.27A8.59,8.59,0,0,1,105,59.64Zm-17.59-6H105a2.67,2.67,0,0,0,2.82-2.41V35.81H90.17a2.67,2.67,0,0,0-2.81,2.4Z"/><path class="cls-3" d="M64.68,59.64H41.12a8.59,8.59,0,0,1-8.78-8.37V29.84H55.9a8.6,8.6,0,0,1,8.78,8.37ZM38.31,35.81V51.27a2.67,2.67,0,0,0,2.81,2.41h17.6V38.21a2.67,2.67,0,0,0-2.82-2.4Z"/><path class="cls-4" d="M87.36,81H58.72V53.68H87.36ZM64.68,75H81.39V59.64H64.68Z"/><rect class="cls-5" x="58.72" y="53.68" width="5.97" height="5.97"/><rect class="cls-5" x="81.39" y="53.68" width="5.97" height="5.97" transform="translate(27.71 141.04) rotate(-90)"/><rect class="cls-5" x="58.72" y="75.04" width="5.97" height="5.97" transform="translate(-16.32 139.72) rotate(-90)"/><rect class="cls-5" x="81.39" y="75.04" width="5.97" height="5.97" transform="translate(6.35 162.4) rotate(-90)"/><path class="cls-6" d="M118.45,29.84a2.64,2.64,0,0,1,1.27.33,2.36,2.36,0,0,1,.94.94,2.55,2.55,0,0,1,0,2.56,2.36,2.36,0,0,1-.94.94,2.56,2.56,0,0,1-2.55,0,2.36,2.36,0,0,1-.94-.94,2.52,2.52,0,0,1-.34-1.27,2.59,2.59,0,0,1,.34-1.29,2.45,2.45,0,0,1,1-.94A2.64,2.64,0,0,1,118.45,29.84Zm0,.5a2,2,0,0,0-1,.27,1.91,1.91,0,0,0-.77.75,2.15,2.15,0,0,0-.27,1,2,2,0,0,0,.27,1,1.85,1.85,0,0,0,.76.76,2,2,0,0,0,2,0,1.92,1.92,0,0,0,.76-.76,2.07,2.07,0,0,0,0-2.06,1.83,1.83,0,0,0-.76-.75A2,2,0,0,0,118.46,30.34Zm-1.16,3.43V31.05h1.42a1.06,1.06,0,0,1,.42.11.72.72,0,0,1,.26.26.84.84,0,0,1,.1.39.76.76,0,0,1-.19.5.92.92,0,0,1-.54.26.67.67,0,0,1,.19.1l.18.21a2.58,2.58,0,0,1,.2.33l.32.55H119l-.23-.44a1.66,1.66,0,0,0-.38-.56.58.58,0,0,0-.38-.12h-.14v1.12Zm.55-1.55h.22a3.44,3.44,0,0,0,.6,0,.46.46,0,0,0,.18-.13.38.38,0,0,0,.07-.21.35.35,0,0,0-.07-.2.34.34,0,0,0-.19-.13,2.94,2.94,0,0,0-.59,0h-.22Z"/><path class="cls-6" d="M158.81,71.77h-11.3v18.1a2.12,2.12,0,0,1-2.18,2.18,2.15,2.15,0,0,1-2.18-2.18V45.47a2.2,2.2,0,0,1,2.18-2.18H158c11.3,0,15.33,6.54,15.33,12.69v3.37C173.34,66.62,167.92,71.77,158.81,71.77ZM169,56c0-3.89-2.44-8.65-11.17-8.65h-10.3V67.74h11.16c7.07,0,10.31-3.83,10.31-8.46Z"/><path class="cls-6" d="M207.69,91.46H183.91a2.08,2.08,0,0,1-2.12-2v-44a2.13,2.13,0,0,1,2.12-2.12H206.7a2.17,2.17,0,0,1,2.11,2.12,2.12,2.12,0,0,1-2.11,2.11H186.15V65.36h18.7a2,2,0,1,1,0,4.1h-18.7V87.23h21.54a2.14,2.14,0,0,1,2.05,2.18A2.07,2.07,0,0,1,207.69,91.46Z"/><path class="cls-6" d="M248.71,92.05a2,2,0,0,1-1.78-1.12c-4.16-7-8.52-13.94-13.35-20.81-4.75,6.87-9.25,13.81-13.34,20.81a2,2,0,0,1-1.79,1.12,2.24,2.24,0,0,1-2.24-2.11,2.27,2.27,0,0,1,.33-1.19c4.42-7.6,9.31-15,14.4-22.47a219.41,219.41,0,0,1-12.55-20.34,2.61,2.61,0,0,1-.27-1.19,2.17,2.17,0,0,1,2.18-2,2,2,0,0,1,1.79,1.19c3.5,6.34,7.27,12.48,11.49,18.7,4.17-6.22,7.93-12.36,11.43-18.7a2.06,2.06,0,0,1,1.85-1.19A2.18,2.18,0,0,1,249,44.81a2.52,2.52,0,0,1-.26,1.13,235,235,0,0,1-12.62,20.41c5.15,7.47,10,14.87,14.47,22.46a2.7,2.7,0,0,1,.33,1.13A2.24,2.24,0,0,1,248.71,92.05Z"/></g></g></svg>