<svg width="25" height="24" viewBox="0 0 25 24" fill="none" xmlns="http://www.w3.org/2000/svg">
<path d="M22.298 9.53986H15.0577V2.67882C15.0577 1.20273 16.2644 0 17.7597 0H25V6.86105C25 8.33713 23.7933 9.53986 22.298 9.53986ZM16.894 7.62642H22.298C22.7702 7.62642 23.1637 7.27107 23.1637 6.86105V1.91344H17.7597C17.2875 1.91344 16.894 2.26879 16.894 2.67882V7.62642ZM25 24H17.7597C16.2644 24 15.0577 22.7973 15.0577 21.3212V14.4601H22.298C23.7933 14.4601 25 15.6629 25 17.139V24ZM16.894 16.3736V21.3212C16.894 21.7312 17.2875 22.0866 17.7597 22.0866H23.1637V17.139C23.1637 16.7289 22.7702 16.3736 22.298 16.3736H16.894ZM7.24029 24H0V17.139C0 15.6629 1.20672 14.4601 2.70199 14.4601H9.94229V21.3212C9.94229 22.7973 8.73557 24 7.24029 24ZM1.83631 22.0866H7.24029C7.71249 22.0866 8.10598 21.7312 8.10598 21.3212V16.3736H2.70199C2.2298 16.3736 1.83631 16.7289 1.83631 17.139V22.0866Z" fill="white"/>
<path d="M22.298 9.53986H15.0577V2.67882C15.0577 1.20273 16.2644 0 17.7597 0H25V6.86105C25 8.33713 23.7933 9.53986 22.298 9.53986ZM16.894 7.62642H22.298C22.7702 7.62642 23.1637 7.27107 23.1637 6.86105V1.91344H17.7597C17.2875 1.91344 16.894 2.26879 16.894 2.67882V7.62642ZM9.94229 9.53986H2.70199C1.20672 9.53986 0 8.33713 0 6.86105V0H7.24029C8.73557 0 9.94229 1.20273 9.94229 2.67882V9.53986ZM1.83631 1.91344V6.86105C1.83631 7.27107 2.2298 7.62642 2.70199 7.62642H8.10598V2.67882C8.10598 2.26879 7.71249 1.91344 7.24029 1.91344H1.83631Z" fill="white"/>
<path d="M16.894 16.3736H8.10597V7.62646H16.894V16.3736ZM9.94228 14.4602H15.0839V9.53991H9.94228V14.4602Z" fill="white"/>
</svg>
