<?xml version="1.0" encoding="utf-8"?>
<!-- Generator: Adobe Illustrator 19.2.1, SVG Export Plug-In . SVG Version: 6.00 Build 0)  -->
<svg version="1.1" id="Layer_1" xmlns="http://www.w3.org/2000/svg" xmlns:xlink="http://www.w3.org/1999/xlink" x="0px" y="0px"
	 viewBox="0 0 792 612" style="enable-background:new 0 0 792 612;" xml:space="preserve">
<g id="Aplos_-_Clearspace__x26__Lockup">
	<g id="Aplos_Lockup">
		<g id="Wordmark">
			<path id="_xAE__1_" d="M663.952576,332.308807c0-1.072205-0.916016-1.462402-1.8526-1.462402h-1.755005v4.992188h0.897583
				v-2.086395h0.643616l1.169861,2.086395h1.091736l-1.345581-2.184204
				C663.504211,333.498199,663.952576,333.030396,663.952576,332.308807z M661.242554,333.030396v-1.423798h0.81842
				c0.468628,0,0.995056,0.13681,0.995056,0.682617c0,0.604584-0.585022,0.74118-1.091858,0.74118H661.242554z
				 M662.080383,328.935211c-2.45697,0-4.44519,1.969788-4.44519,4.426788s1.98822,4.387787,4.44519,4.387787
				s4.446411-1.930786,4.446411-4.387787S664.537354,328.935211,662.080383,328.935211z M662.080383,337.106201
				c-2.066406,0-3.744019-1.696808-3.744019-3.744202c0-2.067413,1.677612-3.744202,3.744019-3.744202
				c2.067383,0,3.744202,1.676788,3.744202,3.744202C665.824585,335.409393,664.147766,337.106201,662.080383,337.106201z"/>
			<path id="Aplos" d="M376.043396,329.683197c-6.503601,0-9.782806-5.811188-9.782806-11.42981
				c0-5.618378,3.5578-11.182373,9.470795-11.182373c2.769196,0,6.269806,1.388794,7.643616,3.341583l6.885193-6.859985
				c-3.332611-3.511627-8.644989-5.607819-14.528809-5.607819c-11.974396,0-20.665192,8.593201-20.665192,20.43222
				c0,12.030792,8.593597,20.432587,20.898804,20.432587c5.855408,0,11.266205-1.713806,14.474182-5.162811l-6.696594-7.186798
				C382.195587,328.343597,378.952789,329.683197,376.043396,329.683197z M337.537384,337.720398h10.682404v-38.686584h-10.682404
				V337.720398z M318.112183,320.243988c0,4.546021-2.963196,9.439209-8.486176,9.439209
				c-4.257812,0-6.531403-3.036591-6.531403-9.283203v-21.36618h-10.682404v24.01059
				c0,7.988983,3.986603,15.765198,14.647003,15.765198c5.027374,0,9.238373-3.957397,11.360199-6.878387h0.15979v5.789185
				h10.215393v-38.686584h-10.682404V320.243988z M273.140015,303.945587h-0.236633
				c-1.509186-1.668976-5.597778-6.000793-12.236389-6.000793c-10.891998,0-19.2854,8.527618-19.2854,20.277008
				c0,11.929413,7.745209,20.587799,18.773193,20.587799c5.007202,0,9.710419-2.653198,12.437012-5.739594h0.1586v23.700806
				H283.4328v-57.737h-10.292786V303.945587z M262.767578,329.683197c-6.605377,0-10.360977-5.765991-10.360977-11.461395
				c0-5.445404,3.448395-11.306396,10.360977-11.306396c6.358612,0,10.293823,5.949402,10.293823,11.461609
				C273.061401,323.934387,269.211395,329.683197,262.767578,329.683197z M506.097382,297.944794
				c-12.155396,0-20.977203,8.527618-20.977203,20.277008c0,12.158203,9.018005,20.691803,20.977203,20.691803
				c11.957977,0,20.976227-8.615204,20.976227-20.691803C527.073608,306.472412,518.251587,297.944794,506.097382,297.944794z
				 M506.097382,329.683197c-6.966187,0-10.139801-5.941193-10.139801-11.461395c0-5.445404,3.173615-11.306396,10.139801-11.306396
				c6.966217,0,10.138824,5.860992,10.138824,11.306396C516.236206,323.742004,513.063599,329.683197,506.097382,329.683197z
				 M639.652771,313.909393c-5.497375-1.311981-7.434998-2.018402-7.434998-4.244781
				c0-3.070007,3.889587-3.743622,5.650391-3.743622c3.315247,0,7.059204,1.979614,8.467834,3.858612l6.299194-6.043396
				c-2.913208-3.65921-8.641602-5.791412-14.690002-5.791412c-7.731018,0-15.848389,3.888397-15.848389,12.575409
				c0,7.459412,5.845764,9.710205,11.566772,11.080811c6.029236,1.403778,8.180786,2.430176,8.180786,4.858978
				c0,3.580414-4.062988,4.165009-5.460999,4.165009c-3.494202,0-7.544373-2.000793-9.729004-4.593597l-6.484985,6.574005
				c3.542786,3.928802,9.606812,6.292999,15.825439,6.292999c10.443359,0,16.640381-4.978607,16.640381-13.193817
				C652.635193,317.844604,645.050171,315.202393,639.652771,313.909393z M619.457397,299.033813h-13.777222l-13.792603,16.052795
				h-0.237366v-37.371216h-10.682434v60.005005h10.682434v-19.081207H591.888l14.309204,19.081207h14.057983L603.624573,316.5784
				L619.457397,299.033813z M461.0466,297.944794c-4.88559,0-8.484802,2.13562-11.883423,5.320618h-0.200165v-25.550018h-10.681427
				v60.005005h10.215424v-5.468384h0.15979c2.408386,3.950592,7.194,6.557587,12.157196,6.557587
				c11.027405,0,19.386597-8.658386,19.386597-20.587799C480.200592,306.472412,471.939575,297.944794,461.0466,297.944794z
				 M458.946777,329.683197c-6.444183,0-10.294769-5.74881-10.294769-11.306183c0-5.512207,3.935791-11.461609,10.294769-11.461609
				c6.912598,0,10.351227,5.860992,10.351227,11.306396C469.298004,323.917206,465.552399,329.683197,458.946777,329.683197z
				 M434.262604,299.033813h-13.777222l-13.792603,16.052795h-0.237396v-37.371216H395.77301v60.005005h10.682373v-19.081207
				h0.237793l14.309204,19.081207h14.058014L418.429779,316.5784L434.262604,299.033813z M553.039368,297.944794
				c-12.155396,0-20.977173,8.527618-20.977173,20.277008c0,12.158203,9.018005,20.691803,20.977173,20.691803
				c11.958008,0,20.976196-8.615204,20.976196-20.691803C574.015564,306.472412,565.193604,297.944794,553.039368,297.944794z
				 M553.039368,329.683197c-6.96637,0-10.139771-5.941193-10.139771-11.461395c0-5.445404,3.173401-11.306396,10.139771-11.306396
				c6.966003,0,10.138794,5.860992,10.138794,11.306396C563.178162,323.742004,560.005371,329.683197,553.039368,329.683197z"/>
		</g>
		<g id="Icon_2_">
			<circle id="Circle_2_" style="fill:#2CA01C;" cx="184.370392" cy="300.225586" r="45"/>
			<path id="qb" style="fill:#FFFFFF;" d="M151.865799,300.224396c0,9.664795,7.834991,17.499817,17.5,17.499817h2.5v-6.5h-2.5
				c-6.065399,0-11-4.934601-11-10.999817c0-6.065582,4.934601-11,11-11h6.007599c0,0,0,33.356598,0,33.999817
				c0,3.589783,2.910202,6.5,6.5,6.5v-46.999817c0,0-6.726608,0-12.507599,0
				C159.70079,282.724396,151.865799,290.559601,151.865799,300.224396z M199.374802,282.72699h-2.5v6.5h2.5
				c6.065399,0,11,4.934601,11,11s-4.934601,10.999817-11,10.999817h-6.007614c0,0,0-33.356598,0-33.999817
				c0-3.589996-2.910187-6.5-6.499985-6.5v46.999817c0,0,6.726593,0,12.507599,0c9.664993,0,17.5-7.835205,17.5-17.499817
				C216.874802,290.562012,209.039795,282.72699,199.374802,282.72699z"/>
		</g>
		<path id="intuit_2_" d="M285.439606,265.473206c1.642181,0,2.973572-1.331818,2.973572-2.973602
			c0-1.641815-1.33139-2.973602-2.973572-2.973602c-1.641998,0-2.973206,1.331787-2.973206,2.973602
			C282.4664,264.141388,283.797607,265.473206,285.439606,265.473206z M267.696381,267.47641
			c-2.910583,0-5.248199,1.763977-6.108795,3.731598h-0.082397v-3.156616h-4.673584v19.682617h4.919403v-10.826416
			c0-2.623199,1.477173-5.33078,4.592377-5.33078c3.15802,0,3.691406,2.912598,3.691406,5.248993v10.908203h4.920013v-12.302216
			C274.954803,271.413208,272.823395,267.47641,267.696381,267.47641z M246.868195,287.734009h4.920807v-19.682617h-4.920807
			V287.734009z M336.351379,265.473206c1.641815,0,2.973022-1.331818,2.973022-2.973602
			c0-1.641815-1.331207-2.973602-2.973022-2.973602c-1.642578,0-2.973602,1.331787-2.973602,2.973602
			C333.377777,264.141388,334.708801,265.473206,336.351379,265.473206z M328.373383,268.039215v4.360199h5.517609v15.334595
			h4.920593v-15.334595h5.516998v-4.360199H328.373383z M320.005402,287.734009h4.920776v-19.682617h-4.920776V287.734009z
			 M277.462006,272.399414h5.517181v15.334595h4.920593v-15.334595h5.516998v-4.360199h-15.954773V272.399414z
			 M310.046997,278.876587c0,2.624603-1.47699,5.330811-4.592194,5.330811c-3.15741,0-3.69101-2.911407-3.69101-5.248993v-10.907013
			h-4.920593v12.300995c0,4.019806,2.131378,7.9552,7.258392,7.9552c2.910797,0,5.248993-1.762573,6.109009-3.731598h0.082397
			v3.15802h4.674591v-19.682617h-4.920593V278.876587z"/>
	</g>
	<rect id="Clearspace_1_" x="94.370399" y="210.225601" style="fill:none;" width="603.259155" height="191.548798"/>
</g>
</svg>
