<svg width="388" height="358" viewBox="0 0 388 358" fill="none" xmlns="http://www.w3.org/2000/svg">
<path d="M233.27 40.007V113.547H233.13V113.827H154.23V113.547H153.82V40.137C153.42 17.677 134.82 -0.392954 111.99 0.147047H0V102.177C0.41 124.637 19.01 142.717 41.84 142.167H125.66V215.567H41.84C19.01 215.017 0.55 232.687 0 255.557V357.587H112.26C134.69 357.997 153.69 340.467 154.1 317.597V244.187H233.13V318.007C233.54 340.467 252.14 358.547 274.97 357.997H387.23V255.557C386.82 233.097 368.22 215.017 345.39 215.567H261.71H261.57V142.167H345.53C367.95 142.577 386.96 125.047 387.37 102.177V0.00704651H275.11C252.68 -0.402953 233.68 17.127 233.27 39.997V40.007ZM28.58 102.037V28.637H112.4C119.1 28.227 125.25 33.427 125.66 40.137V113.537V113.947H41.84V113.537C35.14 113.947 28.99 109.287 28.58 102.037ZM125.66 317.597C125.25 324.307 118.96 329.507 112.4 329.097H28.58V255.697C28.99 248.987 35.28 243.787 41.84 244.197H125.66V317.607V317.597ZM261.71 244.187H345.53C352.23 243.777 358.38 248.977 358.79 255.687V329.087H274.97C268.27 329.497 262.12 324.297 261.71 317.587V244.177V244.187ZM233.13 215.567H153.83V142.167H233.27V215.567H233.13ZM358.79 102.037C358.38 109.157 352.09 113.947 345.53 113.537H261.71V40.137C262.67 33.017 268.41 28.217 274.97 28.637H358.79V102.037Z" fill="white"/>
</svg>
